# xmcd CD database file
#
# Track frame offsets:
#	150
#	14321
#	28197
#	42205
#	56362
#	70707
#	84857
#	100266
#	114665
#	129346
#	141307
#	155054
#	168367
#	181378
#	193346
#	206159
#	218794
#	230973
#	244327
#	256498
#	269608
#	282193
#	296714
#	311007
#
# Disc length: 4339 seconds
#
# Revision: 2
# Processed by: cddbd v1.5PL3 Copyright (c) Steve Scherf et al.
# Submitted via: CDex 1.51
#
DISCID=7410f118
DTITLE=Big Joe Williams - Big Joe Williams and the Stars of Mississippi Blues, Disc A
DYEAR=2004
DGENRE=Blues
TTITLE0=Little Leg Woman
TTITLE1=Somebody's Been Borrowing That Stuff
TTITLE2=Providence Help The Poor People
TTITLE3=49 Highway Blues
TTITLE4=My Grey Pony
TTITLE5=Stepfather Blues
TTITLE6=Baby Please Don't Go
TTITLE7=Stack O' Dollars
TTITLE8=Wild Cow Blues
TTITLE9=Worried Man Blues
TTITLE10=I Know You Gonna Miss Me
TTITLE11=Rootin' Ground Hog
TTITLE12=Brother James
TTITLE13=I Won't Be In Hard Luck No More
TTITLE14=Crawlin' King Snake
TTITLE15=I'm Getting Wild About Her
TTITLE16=Peach Orchard Mama
TTITLE17=Meet Me Around The Corner
TTITLE18=Throw A Boogie Woogie
TTITLE19=North Wind Blues
TTITLE20=Please Don't Go
TTITLE21=Highway 49
TTITLE22=Someday Baby
TTITLE23=Break 'Em On Down
EXTD=YEAR: 2004
EXTT0=
EXTT1=
EXTT2=
EXTT3=
EXTT4=
EXTT5=
EXTT6=
EXTT7=
EXTT8=
EXTT9=
EXTT10=
EXTT11=
EXTT12=
EXTT13=
EXTT14=
EXTT15=
EXTT16=
EXTT17=
EXTT18=
EXTT19=
EXTT20=
EXTT21=
EXTT22=
EXTT23=
PLAYORDER=
